<svg width="124" height="124" viewBox="0 0 124 124" fill="none" xmlns="http://www.w3.org/2000/svg">
<g filter="url(#filter0_d_0_1)">
<circle cx="62" cy="58" r="57.5" fill="#FFC659" stroke="black"/>
</g>
<path d="M45.5181 51.0349C45.5181 50.1908 45.1564 49.4673 44.4329 48.8644C43.7495 48.2615 42.9256 47.96 41.9609 47.96C40.0315 47.96 38.4438 49.0653 37.1978 51.2761C35.9518 53.4466 35.3288 55.9185 35.3288 58.692C35.3288 60.8223 35.7307 62.7516 36.5346 64.48C37.3385 66.1682 38.5041 67.5147 40.0315 68.5196C41.5589 69.5244 43.3275 70.0269 45.3372 70.0269C46.8244 70.0269 48.2513 69.7455 49.618 69.1828C50.9846 68.5799 52.0899 67.9367 52.934 67.2534C53.7781 66.5299 54.6423 65.8868 55.5266 65.3241C56.4511 64.7212 57.2549 64.4197 57.9383 64.4197C58.8225 64.4197 59.5862 64.7815 60.2294 65.505C60.8725 66.1883 61.194 66.9118 61.194 67.6755C61.194 68.5196 60.9328 69.5043 60.4102 70.6298C59.9279 71.7552 59.1441 72.9611 58.0588 74.2473C56.9736 75.4933 55.7075 76.659 54.2604 77.7442C52.8134 78.7893 51.0047 79.6736 48.8342 80.3971C46.7039 81.0804 44.4529 81.422 42.0815 81.422C38.9463 81.422 36.0322 80.9598 33.3391 80.0353C30.6863 79.0707 28.3751 77.7241 26.4055 75.9958C24.436 74.2272 22.8885 72.0165 21.7631 69.3636C20.6376 66.7108 20.0749 63.7364 20.0749 60.4404C20.0749 53.9289 22.0243 48.784 25.9232 45.0057C29.8221 41.2274 34.9268 39.3382 41.2374 39.3382C44.4529 39.3382 47.4274 39.8809 50.1606 40.9661C52.8938 42.0514 55.0643 43.5587 56.6721 45.488C58.2799 47.4174 59.0838 49.5276 59.0838 51.8187C59.0838 54.4715 58.1995 56.8832 56.431 59.0537C54.6624 61.184 52.3713 62.2492 49.5577 62.2492C47.9499 62.2492 46.5029 61.8071 45.2166 60.9228C43.9304 60.0385 43.2873 58.7724 43.2873 57.1244C43.2873 56.3607 43.6491 55.2955 44.3726 53.9289C45.1363 52.5623 45.5181 51.5976 45.5181 51.0349ZM90.9905 51.6981C90.9905 49.7688 90.2871 48.4423 88.8803 47.7188C87.4735 46.9953 85.102 46.6336 81.7658 46.6336V57.0641C84.901 57.0641 87.2122 56.6822 88.6994 55.9185C90.2268 55.1146 90.9905 53.7078 90.9905 51.6981ZM81.7658 71.9562C81.7658 77.9854 79.4144 81 74.7117 81C72.3402 81 70.5917 80.377 69.4663 79.1309C68.381 77.8447 67.8384 75.5938 67.8384 72.3782V46.935C67.8384 44.6037 68.4614 42.8352 69.7074 41.6293C70.9937 40.3833 72.6617 39.7603 74.7117 39.7603H87.373C92.3169 39.7603 96.3163 40.9259 99.3711 43.2572C102.426 45.5483 103.953 48.5026 103.953 52.1201C103.953 54.8534 103.37 57.0038 102.205 58.5714C101.079 60.0988 99.2505 61.2242 96.7182 61.9477C98.6476 62.0683 100.436 63.0129 102.084 64.7815C103.732 66.5098 104.556 68.6803 104.556 71.293C104.556 73.9458 104.295 75.9958 103.772 77.4428C103.29 78.8496 102.587 79.7942 101.662 80.2765C100.738 80.7588 99.4314 81 97.7432 81C95.3717 81 93.6233 80.5177 92.4978 79.553C91.4126 78.5481 90.8699 77.0408 90.8699 75.0311C90.8699 72.539 90.6288 70.6298 90.1464 69.3034C89.6641 67.9367 89.0411 67.0525 88.2774 66.6505C87.5137 66.2486 86.4485 66.0476 85.0819 66.0476L81.7658 66.1079V71.9562Z" fill="#6CABDD"/>
<defs>
<filter id="filter0_d_0_1" x="0" y="0" width="124" height="124" filterUnits="userSpaceOnUse" color-interpolation-filters="sRGB">
<feFlood flood-opacity="0" result="BackgroundImageFix"/>
<feColorMatrix in="SourceAlpha" type="matrix" values="0 0 0 0 0 0 0 0 0 0 0 0 0 0 0 0 0 0 127 0" result="hardAlpha"/>
<feOffset dy="4"/>
<feGaussianBlur stdDeviation="2"/>
<feComposite in2="hardAlpha" operator="out"/>
<feColorMatrix type="matrix" values="0 0 0 0 0 0 0 0 0 0 0 0 0 0 0 0 0 0 0.25 0"/>
<feBlend mode="normal" in2="BackgroundImageFix" result="effect1_dropShadow_0_1"/>
<feBlend mode="normal" in="SourceGraphic" in2="effect1_dropShadow_0_1" result="shape"/>
</filter>
</defs>
</svg>
